<svg version="1.1" id="Layer_1" xmlns="http://www.w3.org/2000/svg" xmlns:xlink="http://www.w3.org/1999/xlink" x="0px" y="0px"
	 width="100%" viewBox="0 0 1024 1024" enable-background="new 0 0 1024 1024" xml:space="preserve">
<path fill="currentColor" opacity="1.000000" stroke="none" 
	d="
M546.442505,643.588379 
	C536.941711,637.056335 527.940002,630.443420 519.364319,623.294617 
	C516.330627,620.765625 514.245422,620.965881 511.234619,623.371094 
	C478.090149,649.848450 441.628296,670.819336 402.794220,687.672974 
	C377.887299,698.482361 352.381989,707.726074 326.264557,715.255920 
	C322.113220,716.452759 320.102661,715.600037 318.071259,711.717468 
	C309.717438,695.751038 300.124878,680.539734 288.876068,666.417480 
	C288.064789,665.398987 287.078674,664.459839 286.938995,662.209473 
	C353.351166,645.436340 416.218292,620.517883 471.250580,578.679810 
	C470.778473,575.519714 468.714233,573.918762 467.123688,572.090515 
	C435.165131,535.355286 409.876160,494.389496 389.530762,450.252380 
	C383.462402,437.087708 377.627136,423.829041 372.565521,410.250641 
	C371.189697,406.559845 369.283997,405.225037 365.257751,405.265320 
	C343.927612,405.478790 322.592346,405.219208 301.263367,405.484131 
	C296.144989,405.547729 294.677582,403.935028 294.779419,398.928223 
	C295.070923,384.601562 294.876038,370.265137 294.880127,355.932526 
	C294.882202,348.698059 294.889740,348.678680 301.997955,348.678040 
	C364.328125,348.672455 426.658325,348.674255 488.988495,348.673889 
	C491.278656,348.673889 493.568817,348.673920 496.937958,348.673920 
	C490.840820,324.875793 481.263092,303.433502 470.758759,281.434692 
	C476.954437,279.581207 482.589203,277.861267 488.244202,276.210663 
	C501.658325,272.295288 515.100769,268.475311 528.485779,264.463379 
	C531.108154,263.677338 532.815430,263.812897 534.246399,266.424255 
	C546.112305,288.079132 556.729370,310.288208 564.484436,333.784180 
	C564.735229,334.543915 564.762085,335.377594 564.988281,336.754883 
	C553.466309,340.405762 542.037903,344.027008 530.609497,347.648254 
	C530.667603,347.992096 530.725708,348.335907 530.783752,348.679749 
	C533.053345,348.679749 535.322937,348.679749 537.592529,348.679749 
	C600.089355,348.679230 662.586243,348.677979 725.083069,348.678955 
	C733.148987,348.679077 733.149475,348.684296 733.152527,356.994202 
	C733.157715,371.160126 733.016357,385.328491 733.250244,399.490631 
	C733.326233,404.088776 731.789246,405.506592 727.206909,405.461182 
	C706.543396,405.256409 685.875366,405.498413 665.211975,405.285034 
	C660.780579,405.239288 658.747559,406.819427 657.268005,410.902771 
	C638.241211,463.414703 612.896118,512.509033 577.947327,556.344421 
	C573.794800,561.552795 569.425842,566.588440 565.178101,571.721436 
	C563.929321,573.230408 562.287415,574.505066 561.914856,577.239868 
	C615.201416,618.436035 676.018188,643.762024 740.801880,659.184692 
	C741.468262,661.497742 740.306580,662.151978 739.543823,662.955933 
	C726.387146,676.823547 715.715088,692.510132 706.244568,709.019165 
	C704.111755,712.737000 702.104919,713.697510 697.904541,712.529907 
	C643.908875,697.520691 593.002869,675.775330 546.442505,643.588379 
M472.117645,482.420441 
	C485.244080,501.654358 499.509918,519.941895 516.440552,536.731140 
	C550.811523,497.974152 576.243469,454.899536 593.135681,406.667664 
	C589.742004,405.136322 587.386536,405.386169 585.077881,405.385620 
	C536.779846,405.374237 488.481842,405.379883 440.183838,405.384766 
	C438.851715,405.384918 437.516815,405.364990 436.188080,405.440460 
	C433.345490,405.601959 432.371368,407.243134 433.035370,409.847382 
	C433.443512,411.448273 434.076416,413.006134 434.741547,414.525055 
	C445.049866,438.064575 457.335663,460.520172 472.117645,482.420441 
z"/>
<path fill="currentColor" opacity="1.000000" stroke="none" 
	d="
M871.738037,281.375824 
	C900.681946,352.516174 929.467590,423.305756 958.248352,494.097351 
	C958.749756,495.330597 959.174622,496.594788 959.664307,497.833008 
	C967.493042,517.627197 967.590881,510.071381 959.488220,530.081177 
	C923.555298,618.818665 887.399780,707.466064 851.440735,796.192993 
	C849.900574,799.993286 848.035889,801.556519 843.799988,801.466003 
	C830.808594,801.188293 817.807495,801.382935 804.810120,801.365356 
	C798.366089,801.356689 797.132935,799.745850 799.563965,793.509705 
	C804.824280,780.016052 810.315369,766.611938 815.764221,753.192322 
	C845.766235,679.301758 875.437256,605.273132 906.123474,531.667725 
	C911.497131,518.778137 911.553040,508.409271 906.168701,495.576538 
	C881.050110,435.709778 857.003174,375.393402 832.567932,315.239899 
	C821.790710,288.709137 811.000732,262.183563 800.220825,235.653900 
	C799.845093,234.729294 799.455994,233.803757 799.172119,232.849197 
	C797.283630,226.499847 798.594482,224.668121 805.057617,224.660660 
	C817.888306,224.645859 830.720825,224.771393 843.548645,224.578903 
	C847.221313,224.523788 849.189941,225.590714 850.600220,229.171539 
	C857.432434,246.519455 864.557861,263.751862 871.738037,281.375824 
z"/>
<path fill="currentColor" opacity="1.000000" stroke="none" 
	d="
M73.747894,477.871368 
	C95.783699,423.683960 117.714691,369.867828 139.627502,316.044312 
	C151.430679,287.052612 163.237457,258.062286 174.940323,229.030121 
	C176.251328,225.777786 178.108231,224.531311 181.663559,224.581223 
	C194.992538,224.768295 208.325729,224.637085 221.657288,224.663559 
	C227.519165,224.675201 228.826019,226.612274 226.531036,232.481430 
	C222.590134,242.559814 218.434921,252.554489 214.358322,262.579681 
	C181.117538,344.325775 147.888214,426.076508 114.585159,507.797211 
	C113.096695,511.449738 113.147118,514.629395 114.647583,518.314087 
	C150.313400,605.899780 185.875046,693.527832 221.457748,781.147339 
	C223.274307,785.620422 225.314163,790.015747 226.879440,794.574524 
	C228.594330,799.569214 227.225113,801.329895 222.042633,801.341492 
	C208.877762,801.370911 195.710220,801.201294 182.549316,801.430786 
	C178.477631,801.501709 176.351624,800.307678 174.766266,796.367859 
	C157.859634,754.353149 140.769348,712.412170 123.695557,670.464783 
	C105.430283,625.590027 87.125198,580.731567 68.846550,535.862244 
	C66.145927,529.232971 63.578129,522.548157 60.777603,515.961853 
	C59.760231,513.569153 60.124264,511.485382 61.039570,509.248932 
	C65.265366,498.923584 69.441544,488.577942 73.747894,477.871368 
z"/>
</svg>